<svg width="672" height="665" viewBox="0 0 672 665" fill="none" xmlns="http://www.w3.org/2000/svg">
<rect width="672" height="665" rx="21" fill="#201F27"/>
<path d="M336 34L365.46 222.053L485 73.9244L416.487 251.513L594.076 183L445.947 302.54L634 332L445.947 361.46L594.076 481L416.487 412.487L485 590.076L365.46 441.947L336 630L306.54 441.947L187 590.076L255.513 412.487L77.9244 481L226.053 361.46L38 332L226.053 302.54L77.9244 183L255.513 251.513L187 73.9244L306.54 222.053L336 34Z" fill="#F5F5F5"/>
<path d="M337.061 8.93933C336.475 8.35355 335.525 8.35355 334.939 8.93933L325.393 18.4853C324.808 19.0711 324.808 20.0208 325.393 20.6066C325.979 21.1924 326.929 21.1924 327.515 20.6066L336 12.1213L344.485 20.6066C345.071 21.1924 346.021 21.1924 346.607 20.6066C347.192 20.0208 347.192 19.0711 346.607 18.4853L337.061 8.93933ZM337.5 332L337.5 10H334.5L334.5 332H337.5Z" fill="#F5F5F5"/>
<path d="M659.061 333.061C659.646 332.475 659.646 331.525 659.061 330.939L649.515 321.393C648.929 320.808 647.979 320.808 647.393 321.393C646.808 321.979 646.808 322.929 647.393 323.515L655.879 332L647.393 340.485C646.808 341.071 646.808 342.021 647.393 342.607C647.979 343.192 648.929 343.192 649.515 342.607L659.061 333.061ZM336 333.5H658V330.5H336V333.5Z" fill="#F5F5F5"/>
<path d="M334.939 655.061C335.525 655.646 336.475 655.646 337.061 655.061L346.607 645.515C347.192 644.929 347.192 643.979 346.607 643.393C346.021 642.808 345.071 642.808 344.485 643.393L336 651.879L327.515 643.393C326.929 642.808 325.979 642.808 325.393 643.393C324.808 643.979 324.808 644.929 325.393 645.515L334.939 655.061ZM334.5 332V654H337.5V332H334.5Z" fill="#F5F5F5"/>
<path d="M12.9393 330.939C12.3535 331.525 12.3535 332.475 12.9393 333.061L22.4853 342.607C23.0711 343.192 24.0208 343.192 24.6066 342.607C25.1924 342.021 25.1924 341.071 24.6066 340.485L16.1213 332L24.6066 323.515C25.1924 322.929 25.1924 321.979 24.6066 321.393C24.0208 320.808 23.0711 320.808 22.4853 321.393L12.9393 330.939ZM336 330.5H14V333.5H336V330.5Z" fill="#F5F5F5"/>
<circle cx="338" cy="334" r="214" fill="#7E58B9"/>
<path d="M180.142 355.028V342.812L278.48 292.727V312.273L203.047 348.615L203.657 347.393V350.447L203.047 349.226L278.48 385.568V405.114L180.142 355.028ZM371.951 246.307L321.56 433.516H305.068L355.459 246.307H371.951ZM496.839 355.028L398.501 405.114V385.568L473.934 349.226L473.324 350.447V347.393L473.934 348.615L398.501 312.273V292.727L496.839 342.812V355.028Z" fill="white"/>
</svg>
